<svg width="33" height="29" viewBox="0 0 33 29" fill="none" xmlns="http://www.w3.org/2000/svg">
<g filter="url(#filter0_d_24531_4105)">
<path d="M29 4V13.861C29 16.1849 28.3712 17.9597 27.1137 19.1854C25.8561 20.3951 24.0732 21 21.765 21C20.6189 21 19.5922 20.8329 18.6848 20.4986C17.7934 20.1643 17.0611 19.6948 16.4881 19.0899C15.8991 19.6948 15.1589 20.1643 14.2674 20.4986C13.376 20.8329 12.3652 21 11.235 21C8.92677 21 7.1439 20.3951 5.88634 19.1854C4.62878 17.9597 4 16.1849 4 13.861V4H7.86819V13.7416C7.86819 15.0946 8.14677 16.0974 8.70392 16.75C9.26106 17.3867 10.0888 17.7051 11.1872 17.7051C13.4317 17.7051 14.554 16.3839 14.554 13.7416V4H18.4222V13.7416C18.4222 16.3839 19.5524 17.7051 21.8128 17.7051C24.0096 17.7051 25.1079 16.3839 25.1079 13.7416V4H29Z" fill="#292E39"/>
</g>
<defs>
<filter id="filter0_d_24531_4105" x="0" y="0" width="33" height="33" filterUnits="userSpaceOnUse" color-interpolation-filters="sRGB">
<feFlood flood-opacity="0" result="BackgroundImageFix"/>
<feColorMatrix in="SourceAlpha" type="matrix" values="0 0 0 0 0 0 0 0 0 0 0 0 0 0 0 0 0 0 127 0" result="hardAlpha"/>
<feOffset dy="4"/>
<feGaussianBlur stdDeviation="2"/>
<feComposite in2="hardAlpha" operator="out"/>
<feColorMatrix type="matrix" values="0 0 0 0 0 0 0 0 0 0 0 0 0 0 0 0 0 0 0.25 0"/>
<feBlend mode="normal" in2="BackgroundImageFix" result="effect1_dropShadow_24531_4105"/>
<feBlend mode="normal" in="SourceGraphic" in2="effect1_dropShadow_24531_4105" result="shape"/>
</filter>
</defs>
</svg>
